<?xml version="1.0" standalone="no"?>
<!DOCTYPE svg PUBLIC "-//W3C//DTD SVG 20010904//EN"
 "http://www.w3.org/TR/2001/REC-SVG-20010904/DTD/svg10.dtd">
<svg version="1.0" xmlns="http://www.w3.org/2000/svg"
 width="1080.000000pt" height="1080.000000pt" viewBox="0 0 1080.000000 1080.000000"
 preserveAspectRatio="xMidYMid meet">
<metadata>
Created by potrace 1.16, written by Peter Selinger 2001-2019
</metadata>
<g transform="translate(0.000000,1080.000000) scale(0.100000,-0.100000)"
fill="#000000" stroke="none">
<path d="M3780 7369 c-123 -13 -219 -29 -330 -55 -107 -25 -289 -81 -303 -93
-4 -4 20 -13 54 -19 79 -14 212 -79 286 -139 98 -79 154 -150 284 -359 344
-553 651 -840 984 -919 70 -17 262 -20 320 -4 71 18 69 16 49 47 -30 46 -167
202 -178 203 -6 0 -51 2 -101 3 -49 2 -119 8 -155 14 -36 6 -112 12 -169 12
-119 0 -143 10 -210 86 -44 50 -66 103 -57 137 3 12 37 47 76 77 39 30 80 69
90 86 11 17 29 39 40 49 26 23 85 129 94 166 3 16 35 52 78 90 40 35 76 68 80
74 18 24 3 53 -62 119 -70 70 -100 126 -87 160 11 27 33 18 72 -30 21 -25 62
-62 91 -81 30 -20 54 -39 54 -44 0 -4 28 -7 63 -6 l64 2 -24 44 c-25 47 -30
86 -12 96 6 4 40 -22 77 -57 37 -36 82 -73 100 -82 30 -15 32 -20 32 -69 0
-28 4 -57 8 -62 23 -33 114 -74 232 -105 25 -6 53 -14 63 -17 16 -4 17 -2 7
16 -27 51 -166 205 -242 269 -168 141 -326 228 -544 301 -256 85 -564 119
-824 90z"/>
<path d="M6460 7349 c-388 -45 -651 -286 -731 -674 -10 -49 -19 -100 -19 -113
0 -23 1 -22 48 9 26 18 75 58 109 89 37 34 95 73 143 96 44 21 80 42 80 48 0
5 -11 24 -26 43 -14 18 -30 47 -36 63 -15 43 3 60 62 60 26 0 61 7 79 16 18 9
39 13 49 8 9 -4 48 -8 86 -8 63 -2 70 -4 97 -34 20 -22 38 -32 58 -32 33 0 46
-13 55 -57 4 -17 14 -34 21 -37 26 -10 47 -77 41 -128 -6 -45 -6 -47 39 -84
90 -74 83 -96 -33 -104 l-77 -5 3 -73 c3 -59 -1 -81 -19 -118 -23 -48 -68 -84
-106 -84 -12 0 -24 -4 -27 -9 -6 -8 47 -198 58 -208 16 -16 190 111 249 181
93 111 125 188 192 456 51 205 110 369 165 461 40 67 116 153 160 181 23 14
20 16 -85 32 -242 36 -460 45 -635 25z"/>
<path d="M7378 6046 c-47 -13 -118 -59 -118 -77 0 -13 2 -13 66 26 48 29 67
35 116 35 108 0 193 -63 224 -167 19 -61 11 -112 -28 -182 -29 -52 -31 -74 -5
-53 7 6 24 33 38 59 32 64 33 169 2 229 -31 58 -93 110 -154 128 -62 19 -78
19 -141 2z"/>
<path d="M3770 6009 c-37 -15 -69 -48 -95 -99 -23 -46 -173 -393 -240 -555
-20 -49 -65 -155 -100 -235 -67 -155 -160 -371 -286 -670 -44 -102 -79 -191
-79 -198 0 -11 28 -13 143 -10 117 2 149 6 182 23 54 27 105 105 164 253 l47
117 378 0 378 0 57 -130 c72 -165 83 -184 118 -218 41 -39 80 -47 218 -47 178
0 171 -6 123 103 -56 131 -281 657 -408 957 -59 140 -127 300 -151 355 -23 55
-65 154 -93 220 -28 66 -55 126 -59 133 -10 15 -259 16 -297 1z m240 -744 c61
-148 110 -273 110 -277 0 -4 -106 -8 -235 -8 -129 0 -235 2 -235 6 0 8 110
282 165 409 26 61 51 121 56 134 7 16 13 21 20 14 5 -5 59 -131 119 -278z"/>
<path d="M7204 5885 c-29 -78 -16 -145 50 -262 39 -68 55 -104 50 -118 -12
-38 -13 -129 -2 -142 6 -7 21 -13 34 -13 13 0 24 -5 24 -10 0 -6 12 -22 26
-35 40 -37 85 -34 127 10 19 19 41 35 50 35 32 0 37 37 25 165 -1 11 1 30 6
43 12 37 -12 26 -28 -13 l-15 -35 -110 0 -109 0 -7 28 c-3 15 -26 61 -51 102
-71 118 -76 152 -39 268 14 42 -13 22 -31 -23z m364 -423 c3 -19 -1 -22 -27
-22 -39 0 -49 -18 -14 -26 54 -11 56 -13 43 -29 -17 -21 -232 -22 -249 -2 -17
21 -3 27 60 27 31 0 64 3 73 6 33 13 2 24 -65 24 -62 0 -69 2 -69 19 0 23 16
26 150 26 91 0 95 -1 98 -23z"/>
<path d="M5222 5599 c-90 -17 -192 -77 -273 -158 -126 -128 -173 -251 -173
-456 0 -206 47 -330 174 -455 144 -143 338 -199 543 -155 90 19 170 63 245
135 34 33 65 60 68 60 6 0 -1 -222 -9 -285 -2 -19 4 -20 188 -20 l190 0 3 663
2 662 -185 0 -185 0 -2 -67 c0 -38 -1 -76 0 -85 1 -10 0 -18 -3 -18 -3 0 -36
26 -74 58 -121 101 -208 132 -366 131 -55 -1 -119 -5 -143 -10z m240 -300
c104 -22 181 -78 226 -163 24 -45 27 -62 27 -151 0 -92 -2 -104 -30 -154 -70
-127 -220 -189 -379 -156 -85 18 -148 54 -187 108 -50 69 -62 105 -63 197 -1
72 3 93 26 140 43 91 111 148 208 174 68 18 104 19 172 5z"/>
<path d="M7015 5596 c-22 -7 -53 -19 -68 -27 -49 -26 -133 -117 -168 -182
l-34 -62 -3 133 -3 132 -189 0 -190 0 0 -670 0 -670 190 0 190 0 0 293 c0 167
5 318 11 352 15 82 50 156 100 210 51 55 99 82 194 106 123 32 143 76 130 284
l-7 115 -56 -1 c-32 0 -75 -6 -97 -13z"/>
<path d="M7260 4740 l0 -490 185 0 185 0 0 490 0 490 -185 0 -185 0 0 -490z"/>
<path d="M4562 4023 l3 -148 25 0 25 0 3 148 3 147 -31 0 -31 0 3 -147z"/>
<path d="M6782 4023 c3 -145 3 -148 26 -151 19 -3 22 1 22 31 0 19 3 49 6 66
6 30 7 31 65 31 l59 0 0 -60 0 -60 30 0 30 0 0 146 0 145 -27 -3 c-27 -3 -28
-6 -31 -61 l-3 -58 -62 3 c-61 3 -62 3 -63 33 -2 83 -3 85 -29 85 l-26 0 3
-147z"/>
<path d="M7082 4051 c3 -115 4 -122 30 -147 34 -34 110 -44 156 -20 50 26 62
60 62 181 l0 106 -27 -3 -28 -3 -3 -101 c-3 -114 -16 -137 -72 -137 -48 0 -55
14 -60 131 l-5 107 -28 3 -29 3 4 -120z"/>
<path d="M7387 4163 c-4 -3 -7 -68 -7 -144 l0 -139 26 -6 c15 -4 60 -4 102 0
58 5 81 11 99 28 32 30 31 80 -3 107 -24 19 -25 22 -10 36 16 17 21 71 8 91
-16 24 -54 34 -130 34 -43 0 -82 -3 -85 -7z"/>
<path d="M5887 4154 c-4 -4 -7 -18 -7 -31 0 -14 -6 -23 -15 -23 -8 0 -15 -9
-15 -20 0 -11 7 -23 15 -26 11 -5 15 -23 15 -73 0 -76 17 -111 55 -111 38 0
55 11 55 34 0 17 -6 22 -22 22 -21 -1 -23 4 -26 62 -3 61 -2 62 23 62 20 0 25
5 25 25 0 20 -5 25 -24 25 -19 0 -25 6 -28 28 -3 26 -34 43 -51 26z"/>
<path d="M4674 4087 c-2 -7 -3 -58 -2 -113 3 -98 3 -99 28 -99 24 0 25 3 30
75 6 86 12 100 45 100 33 0 39 -14 45 -100 5 -72 6 -75 30 -75 25 0 25 1 25
92 0 75 -4 95 -19 112 -22 24 -65 27 -97 9 -17 -10 -23 -10 -26 0 -6 16 -52
16 -59 -1z"/>
<path d="M4922 3988 l3 -113 25 0 c24 0 25 3 30 79 4 61 9 81 23 90 12 8 22 8
35 0 13 -9 18 -29 22 -90 5 -76 6 -79 30 -79 25 0 25 1 28 92 2 82 0 95 -18
113 -22 22 -60 26 -93 9 -16 -9 -22 -9 -25 0 -2 6 -17 11 -33 11 l-30 0 3
-112z"/>
<path d="M5208 4083 c-15 -10 -35 -35 -43 -56 -20 -50 -7 -95 38 -133 27 -22
38 -25 79 -22 56 6 92 33 108 83 14 43 -10 105 -49 128 -37 22 -98 21 -133 0z"/>
<path d="M5400 4093 c0 -4 18 -53 39 -108 59 -153 81 -154 142 -5 21 52 38
101 38 108 1 6 -10 12 -24 12 -27 0 -29 -3 -61 -92 -9 -27 -20 -48 -24 -48 -4
0 -18 30 -31 68 -21 59 -27 67 -51 70 -16 2 -28 0 -28 -5z"/>
<path d="M5667 4093 c-10 -3 -17 -12 -15 -21 2 -13 17 -18 58 -22 46 -4 55 -8
58 -26 3 -18 -1 -20 -33 -16 -74 9 -126 -38 -105 -93 14 -37 52 -51 100 -38
22 5 43 6 47 2 5 -5 19 -6 32 -2 22 6 23 9 19 95 -3 80 -6 92 -27 109 -22 18
-87 24 -134 12z"/>
<path d="M6179 4085 c-36 -20 -63 -78 -55 -120 9 -47 66 -95 112 -95 42 0 87
22 108 52 34 48 11 144 -41 167 -33 15 -93 13 -124 -4z"/>
<path d="M6395 4088 c-2 -7 -3 -58 -2 -113 2 -99 2 -100 27 -100 24 0 25 3 30
75 6 86 12 100 44 100 36 0 45 -19 48 -100 3 -73 4 -75 28 -75 24 0 25 3 28
75 3 85 -1 112 -24 134 -19 19 -66 21 -95 4 -17 -10 -23 -10 -26 0 -3 6 -16
12 -29 12 -14 0 -27 -6 -29 -12z"/>
<path d="M5700 3798 c-14 -11 -50 -33 -80 -47 -52 -25 -63 -26 -220 -26 l-165
0 -104 38 c-111 39 -140 44 -173 26 -24 -13 -123 -218 -111 -230 4 -4 42 -22
82 -40 283 -120 694 -129 926 -20 125 59 216 155 270 284 l15 37 -207 0 c-197
-1 -209 -2 -233 -22z"/>
</g>
</svg>
